<svg width="205" height="204" viewBox="0 0 205 204" fill="none" xmlns="http://www.w3.org/2000/svg">
<path d="M63.7662 116L74.9125 93.9235V93.7481H61.877V88.3638H81.8216V93.7886L70.6348 116H63.7662ZM96.3246 116.675C93.9136 116.675 91.8355 116.104 90.0903 114.961C88.345 113.81 87.0001 112.159 86.0555 110.009C85.1109 107.85 84.643 105.254 84.652 102.223C84.661 99.1908 85.1333 96.6179 86.0689 94.5038C87.0135 92.3807 88.354 90.7658 90.0903 89.6593C91.8355 88.5438 93.9136 87.986 96.3246 87.986C98.7356 87.986 100.814 88.5438 102.559 89.6593C104.313 90.7658 105.663 92.3807 106.607 94.5038C107.552 96.6269 108.02 99.1998 108.011 102.223C108.011 105.263 107.538 107.863 106.594 110.022C105.649 112.181 104.304 113.832 102.559 114.975C100.823 116.108 98.7446 116.675 96.3246 116.675ZM96.3246 111.21C97.764 111.21 98.929 110.477 99.8197 109.01C100.71 107.535 101.151 105.272 101.142 102.223C101.142 100.225 100.94 98.579 100.535 97.2836C100.13 95.9791 99.5678 95.0076 98.8481 94.3688C98.1284 93.7301 97.2872 93.4107 96.3246 93.4107C94.8942 93.4107 93.7382 94.1349 92.8566 95.5833C91.975 97.0227 91.5296 99.2358 91.5207 102.223C91.5117 104.247 91.7051 105.924 92.1009 107.256C92.5057 108.587 93.0725 109.581 93.8012 110.238C94.5299 110.886 95.371 111.21 96.3246 111.21ZM127.314 110.818V109.361C127.314 108.227 127.557 107.179 128.043 106.217C128.538 105.254 129.253 104.481 130.189 103.896C131.124 103.311 132.267 103.019 133.616 103.019C134.993 103.019 136.149 103.311 137.084 103.896C138.029 104.472 138.74 105.241 139.216 106.203C139.702 107.157 139.945 108.209 139.945 109.361V110.818C139.945 111.952 139.702 113 139.216 113.963C138.731 114.925 138.015 115.699 137.071 116.284C136.126 116.868 134.975 117.161 133.616 117.161C132.249 117.161 131.097 116.868 130.162 116.284C129.226 115.699 128.515 114.925 128.03 113.963C127.553 113 127.314 111.952 127.314 110.818ZM131.619 109.361V110.818C131.619 111.394 131.758 111.947 132.037 112.478C132.325 113.009 132.852 113.274 133.616 113.274C134.399 113.274 134.925 113.018 135.195 112.505C135.465 111.983 135.6 111.421 135.6 110.818V109.361C135.6 108.758 135.469 108.192 135.209 107.661C134.957 107.121 134.426 106.851 133.616 106.851C132.86 106.851 132.339 107.121 132.051 107.661C131.763 108.192 131.619 108.758 131.619 109.361ZM112.983 95.0031V93.5457C112.983 92.3942 113.231 91.3416 113.726 90.388C114.229 89.4254 114.949 88.6562 115.885 88.0805C116.82 87.4957 117.954 87.2033 119.285 87.2033C120.662 87.2033 121.818 87.4957 122.753 88.0805C123.698 88.6562 124.413 89.4254 124.899 90.388C125.385 91.3416 125.628 92.3942 125.628 93.5457V95.0031C125.628 96.1546 125.38 97.2071 124.885 98.1607C124.4 99.1143 123.684 99.8745 122.74 100.441C121.795 101.008 120.644 101.291 119.285 101.291C117.927 101.291 116.775 101.004 115.831 100.428C114.895 99.852 114.184 99.0873 113.699 98.1337C113.222 97.1801 112.983 96.1366 112.983 95.0031ZM117.329 93.5457V95.0031C117.329 95.6058 117.468 96.1681 117.747 96.6898C118.035 97.2026 118.548 97.459 119.285 97.459C120.077 97.459 120.603 97.2026 120.864 96.6898C121.134 96.1681 121.269 95.6058 121.269 95.0031V93.5457C121.269 92.9429 121.143 92.3762 120.891 91.8454C120.639 91.3056 120.104 91.0357 119.285 91.0357C118.53 91.0357 118.012 91.3101 117.733 91.8589C117.463 92.4076 117.329 92.9699 117.329 93.5457ZM115.021 116L134.021 88.3638H137.705L118.705 116H115.021Z" fill="white"/>
<path fill-rule="evenodd" clip-rule="evenodd" d="M189.524 48.7054C197.606 61.8937 202.56 76.7084 204.065 92.016C204.606 97.5123 200.078 102 194.555 102L193.555 102C188.032 102 183.619 97.5011 182.946 92.0195C178.027 51.9933 143.91 21.0002 102.555 21.0002C57.8195 21.0002 21.5546 57.2652 21.5546 102C21.5546 134.461 40.6495 162.463 68.2198 175.384C73.2214 177.729 76.1338 183.316 74.4269 188.569L74.1253 189.497C72.4187 194.75 66.7512 197.669 61.6909 195.457C47.5978 189.295 35.0389 180.006 24.9935 168.244C12.7766 153.94 4.75337 136.536 1.81067 117.957C-1.13203 99.3771 1.12048 80.3457 8.31917 62.9665C15.5179 45.5873 27.3823 30.5374 42.6008 19.4805C57.8193 8.42361 75.799 1.79056 94.5521 0.314657C113.305 -1.16124 132.101 2.57751 148.862 11.1176C165.623 19.6576 179.695 32.6663 189.524 48.7054Z" fill="url(#paint0_linear_101_17)"/>
<defs>
<linearGradient id="paint0_linear_101_17" x1="0.554565" y1="102" x2="204.109" y2="102" gradientUnits="userSpaceOnUse">
<stop stop-color="#AA367C"/>
<stop offset="1" stop-color="#4A2FBD"/>
</linearGradient>
</defs>
</svg>
