<svg width="204" height="204" viewBox="0 0 204 204" fill="none" xmlns="http://www.w3.org/2000/svg">
<path d="M72.9422 116.378C70.7921 116.378 68.8714 116.036 67.1802 115.352C65.4979 114.66 64.1754 113.724 63.2128 112.546C62.2592 111.358 61.7824 110.018 61.7824 108.524C61.7824 107.382 62.0568 106.334 62.6056 105.38C63.1543 104.427 63.8965 103.635 64.8321 103.005C65.7767 102.366 66.8293 101.957 67.9898 101.777V101.561C66.4695 101.282 65.2235 100.576 64.2519 99.4427C63.2893 98.3092 62.808 96.9822 62.808 95.4619C62.808 94.0225 63.2443 92.7405 64.1169 91.616C64.9986 90.4915 66.1996 89.6053 67.7199 88.9576C69.2493 88.3099 70.99 87.986 72.9422 87.986C74.8944 87.986 76.6307 88.3099 78.151 88.9576C79.6804 89.6053 80.8814 90.4915 81.754 91.616C82.6356 92.7405 83.0765 94.0225 83.0765 95.4619C83.0765 96.9912 82.5862 98.3227 81.6056 99.4562C80.634 100.581 79.397 101.282 77.8946 101.561V101.777C79.0462 101.957 80.0897 102.366 81.0253 103.005C81.9699 103.635 82.7166 104.427 83.2654 105.38C83.8231 106.334 84.102 107.382 84.102 108.524C84.102 110.018 83.6207 111.358 82.6581 112.546C81.6955 113.724 80.3731 114.66 78.6908 115.352C77.0175 116.036 75.1013 116.378 72.9422 116.378ZM72.9422 111.642C73.7609 111.642 74.4806 111.489 75.1013 111.183C75.7221 110.868 76.2079 110.432 76.5587 109.874C76.9186 109.316 77.0985 108.686 77.0985 107.985C77.0985 107.265 76.9186 106.626 76.5587 106.068C76.1989 105.511 75.7041 105.074 75.0743 104.759C74.4536 104.436 73.7429 104.274 72.9422 104.274C72.1506 104.274 71.4399 104.436 70.8101 104.759C70.1804 105.074 69.6856 105.511 69.3258 106.068C68.9659 106.626 68.786 107.265 68.786 107.985C68.786 108.686 68.9614 109.316 69.3123 109.874C69.6721 110.423 70.1624 110.854 70.7831 111.169C71.4129 111.484 72.1326 111.642 72.9422 111.642ZM72.9422 99.5641C73.6439 99.5641 74.2647 99.4202 74.8044 99.1323C75.3532 98.8444 75.7805 98.4441 76.0864 97.9313C76.4013 97.4185 76.5587 96.8383 76.5587 96.1906C76.5587 95.5428 76.4013 94.9716 76.0864 94.4768C75.7805 93.982 75.3577 93.5951 74.8179 93.3163C74.2782 93.0284 73.6529 92.8844 72.9422 92.8844C72.2405 92.8844 71.6153 93.0284 71.0665 93.3163C70.5177 93.5951 70.0904 93.982 69.7846 94.4768C69.4787 94.9716 69.3258 95.5428 69.3258 96.1906C69.3258 96.8383 69.4787 97.4185 69.7846 97.9313C70.0994 98.4351 70.5312 98.8354 71.08 99.1323C71.6288 99.4202 72.2495 99.5641 72.9422 99.5641ZM98.3385 116.378C96.2334 116.378 94.3667 116.018 92.7384 115.299C91.1191 114.57 89.8416 113.567 88.906 112.289C87.9704 111.012 87.4936 109.541 87.4756 107.877H94.1958C94.2228 108.479 94.4162 109.015 94.776 109.482C95.1359 109.941 95.6262 110.301 96.2469 110.562C96.8677 110.823 97.5739 110.953 98.3655 110.953C99.1572 110.953 99.8544 110.814 100.457 110.535C101.069 110.247 101.546 109.856 101.888 109.361C102.229 108.857 102.396 108.281 102.387 107.634C102.396 106.986 102.211 106.41 101.834 105.906C101.456 105.403 100.92 105.011 100.228 104.732C99.544 104.454 98.7344 104.314 97.7988 104.314H95.1134V99.5641H97.7988C98.6174 99.5641 99.3371 99.4292 99.9579 99.1593C100.588 98.8894 101.078 98.5116 101.429 98.0258C101.78 97.531 101.951 96.9642 101.942 96.3255C101.951 95.7048 101.802 95.1605 101.496 94.6927C101.199 94.2159 100.781 93.847 100.241 93.5862C99.7105 93.3253 99.0942 93.1948 98.3925 93.1948C97.6548 93.1948 96.9846 93.3253 96.3819 93.5862C95.7881 93.847 95.3158 94.2159 94.965 94.6927C94.6141 95.1695 94.4297 95.7228 94.4117 96.3525H88.0289C88.0469 94.7062 88.5057 93.2578 89.4053 92.0073C90.3049 90.7478 91.5284 89.7628 93.0758 89.0521C94.6321 88.3414 96.4043 87.986 98.3925 87.986C100.372 87.986 102.112 88.3324 103.615 89.0251C105.117 89.7178 106.287 90.6624 107.123 91.8589C107.96 93.0464 108.378 94.3913 108.378 95.8937C108.387 97.45 107.879 98.732 106.853 99.7396C105.837 100.747 104.528 101.368 102.927 101.602V101.818C105.068 102.07 106.683 102.762 107.771 103.896C108.869 105.029 109.413 106.446 109.404 108.147C109.404 109.748 108.932 111.169 107.987 112.411C107.051 113.643 105.747 114.615 104.074 115.325C102.409 116.027 100.498 116.378 98.3385 116.378ZM128.65 110.818V109.361C128.65 108.227 128.893 107.179 129.379 106.217C129.874 105.254 130.589 104.481 131.524 103.896C132.46 103.311 133.603 103.019 134.952 103.019C136.328 103.019 137.484 103.311 138.42 103.896C139.365 104.472 140.075 105.241 140.552 106.203C141.038 107.157 141.281 108.209 141.281 109.361V110.818C141.281 111.952 141.038 113 140.552 113.963C140.066 114.925 139.351 115.699 138.407 116.284C137.462 116.868 136.31 117.161 134.952 117.161C133.585 117.161 132.433 116.868 131.497 116.284C130.562 115.699 129.851 114.925 129.365 113.963C128.889 113 128.65 111.952 128.65 110.818ZM132.955 109.361V110.818C132.955 111.394 133.094 111.947 133.373 112.478C133.661 113.009 134.187 113.274 134.952 113.274C135.735 113.274 136.261 113.018 136.531 112.505C136.801 111.983 136.936 111.421 136.936 110.818V109.361C136.936 108.758 136.805 108.192 136.544 107.661C136.292 107.121 135.762 106.851 134.952 106.851C134.196 106.851 133.675 107.121 133.387 107.661C133.099 108.192 132.955 108.758 132.955 109.361ZM114.319 95.0031V93.5457C114.319 92.3942 114.567 91.3416 115.061 90.388C115.565 89.4254 116.285 88.6562 117.22 88.0805C118.156 87.4957 119.29 87.2033 120.621 87.2033C121.997 87.2033 123.153 87.4957 124.089 88.0805C125.034 88.6562 125.749 89.4254 126.235 90.388C126.72 91.3416 126.963 92.3942 126.963 93.5457V95.0031C126.963 96.1546 126.716 97.2071 126.221 98.1607C125.735 99.1143 125.02 99.8745 124.076 100.441C123.131 101.008 121.979 101.291 120.621 101.291C119.263 101.291 118.111 101.004 117.166 100.428C116.231 99.852 115.52 99.0873 115.034 98.1337C114.558 97.1801 114.319 96.1366 114.319 95.0031ZM118.664 93.5457V95.0031C118.664 95.6058 118.804 96.1681 119.083 96.6898C119.371 97.2026 119.883 97.459 120.621 97.459C121.413 97.459 121.939 97.2026 122.2 96.6898C122.47 96.1681 122.605 95.6058 122.605 95.0031V93.5457C122.605 92.9429 122.479 92.3762 122.227 91.8454C121.975 91.3056 121.44 91.0357 120.621 91.0357C119.865 91.0357 119.348 91.3101 119.069 91.8589C118.799 92.4076 118.664 92.9699 118.664 93.5457ZM116.357 116L135.357 88.3638H139.041L120.041 116H116.357Z" fill="white"/>
<path fill-rule="evenodd" clip-rule="evenodd" d="M183.194 40.1186C194.731 55.2357 201.771 73.2207 203.62 92.0158C204.16 97.5122 199.632 102 194.109 102H193.109C187.586 102 183.174 97.5011 182.5 92.0195C177.582 51.9933 143.465 21.0002 102.109 21.0002C57.3741 21.0002 21.1092 57.2652 21.1092 102C21.1092 146.735 57.3741 183 102.109 183C112.703 183 122.821 180.967 132.095 177.269C137.229 175.222 143.298 176.922 145.961 181.765L146.431 182.62C149.091 187.46 147.34 193.59 142.263 195.764C124.902 203.199 105.75 205.694 86.9449 202.867C64.8312 199.542 44.4228 189.042 28.8606 172.983C13.2984 156.924 3.4449 136.196 0.816497 113.989C-1.81191 91.7818 2.93047 69.3261 14.3138 50.078C25.6971 30.8299 43.0905 15.856 63.8171 7.46086C84.5437 -0.934288 107.455 -2.28543 129.025 3.61537C150.594 9.51616 169.627 22.3419 183.194 40.1186Z" fill="url(#paint0_linear_101_22)"/>
<defs>
<linearGradient id="paint0_linear_101_22" x1="0.109161" y1="102" x2="203.664" y2="102" gradientUnits="userSpaceOnUse">
<stop stop-color="#AA367C"/>
<stop offset="1" stop-color="#4A2FBD"/>
</linearGradient>
</defs>
</svg>
