<svg width="205" height="204" viewBox="0 0 205 204" fill="none" xmlns="http://www.w3.org/2000/svg">
<path d="M73.8331 116.378C71.683 116.378 69.7623 116.036 68.071 115.352C66.3887 114.66 65.0663 113.724 64.1037 112.546C63.1501 111.358 62.6733 110.018 62.6733 108.524C62.6733 107.382 62.9477 106.334 63.4964 105.38C64.0452 104.427 64.7874 103.635 65.723 103.005C66.6676 102.366 67.7202 101.957 68.8807 101.777V101.561C67.3603 101.282 66.1143 100.576 65.1428 99.4427C64.1802 98.3092 63.6989 96.9822 63.6989 95.4619C63.6989 94.0225 64.1352 92.7405 65.0078 91.616C65.8894 90.4915 67.0904 89.6053 68.6108 88.9576C70.1402 88.3099 71.8809 87.986 73.8331 87.986C75.7853 87.986 77.5215 88.3099 79.0419 88.9576C80.5713 89.6053 81.7723 90.4915 82.6449 91.616C83.5265 92.7405 83.9673 94.0225 83.9673 95.4619C83.9673 96.9912 83.477 98.3227 82.4965 99.4562C81.5249 100.581 80.2879 101.282 78.7855 101.561V101.777C79.937 101.957 80.9806 102.366 81.9162 103.005C82.8608 103.635 83.6075 104.427 84.1562 105.38C84.714 106.334 84.9929 107.382 84.9929 108.524C84.9929 110.018 84.5116 111.358 83.549 112.546C82.5864 113.724 81.264 114.66 79.5817 115.352C77.9084 116.036 75.9922 116.378 73.8331 116.378ZM73.8331 111.642C74.6518 111.642 75.3714 111.489 75.9922 111.183C76.6129 110.868 77.0987 110.432 77.4496 109.874C77.8094 109.316 77.9893 108.686 77.9893 107.985C77.9893 107.265 77.8094 106.626 77.4496 106.068C77.0897 105.511 76.5949 105.074 75.9652 104.759C75.3445 104.436 74.6338 104.274 73.8331 104.274C73.0414 104.274 72.3307 104.436 71.701 104.759C71.0713 105.074 70.5765 105.511 70.2166 106.068C69.8568 106.626 69.6768 107.265 69.6768 107.985C69.6768 108.686 69.8523 109.316 70.2031 109.874C70.563 110.423 71.0533 110.854 71.674 111.169C72.3037 111.484 73.0234 111.642 73.8331 111.642ZM73.8331 99.5641C74.5348 99.5641 75.1555 99.4202 75.6953 99.1323C76.2441 98.8444 76.6714 98.4441 76.9773 97.9313C77.2921 97.4185 77.4496 96.8383 77.4496 96.1906C77.4496 95.5428 77.2921 94.9716 76.9773 94.4768C76.6714 93.982 76.2486 93.5951 75.7088 93.3163C75.169 93.0284 74.5438 92.8844 73.8331 92.8844C73.1314 92.8844 72.5062 93.0284 71.9574 93.3163C71.4086 93.5951 70.9813 93.982 70.6754 94.4768C70.3696 94.9716 70.2166 95.5428 70.2166 96.1906C70.2166 96.8383 70.3696 97.4185 70.6754 97.9313C70.9903 98.4351 71.4221 98.8354 71.9709 99.1323C72.5196 99.4202 73.1404 99.5641 73.8331 99.5641ZM89.8913 116L101.038 93.9235V93.7481H88.0021V88.3638H107.947V93.7886L96.7599 116H89.8913ZM127.092 110.818V109.361C127.092 108.227 127.335 107.179 127.82 106.217C128.315 105.254 129.03 104.481 129.966 103.896C130.902 103.311 132.044 103.019 133.394 103.019C134.77 103.019 135.926 103.311 136.862 103.896C137.806 104.472 138.517 105.241 138.994 106.203C139.48 107.157 139.722 108.209 139.722 109.361V110.818C139.722 111.952 139.48 113 138.994 113.963C138.508 114.925 137.793 115.699 136.848 116.284C135.904 116.868 134.752 117.161 133.394 117.161C132.026 117.161 130.875 116.868 129.939 116.284C129.003 115.699 128.293 114.925 127.807 113.963C127.33 113 127.092 111.952 127.092 110.818ZM131.396 109.361V110.818C131.396 111.394 131.536 111.947 131.815 112.478C132.103 113.009 132.629 113.274 133.394 113.274C134.176 113.274 134.703 113.018 134.972 112.505C135.242 111.983 135.377 111.421 135.377 110.818V109.361C135.377 108.758 135.247 108.192 134.986 107.661C134.734 107.121 134.203 106.851 133.394 106.851C132.638 106.851 132.116 107.121 131.828 107.661C131.54 108.192 131.396 108.758 131.396 109.361ZM112.761 95.0031V93.5457C112.761 92.3942 113.008 91.3416 113.503 90.388C114.007 89.4254 114.727 88.6562 115.662 88.0805C116.598 87.4957 117.731 87.2033 119.063 87.2033C120.439 87.2033 121.595 87.4957 122.531 88.0805C123.475 88.6562 124.191 89.4254 124.676 90.388C125.162 91.3416 125.405 92.3942 125.405 93.5457V95.0031C125.405 96.1546 125.158 97.2071 124.663 98.1607C124.177 99.1143 123.462 99.8745 122.517 100.441C121.573 101.008 120.421 101.291 119.063 101.291C117.704 101.291 116.553 101.004 115.608 100.428C114.673 99.852 113.962 99.0873 113.476 98.1337C112.999 97.1801 112.761 96.1366 112.761 95.0031ZM117.106 93.5457V95.0031C117.106 95.6058 117.245 96.1681 117.524 96.6898C117.812 97.2026 118.325 97.459 119.063 97.459C119.854 97.459 120.381 97.2026 120.642 96.6898C120.911 96.1681 121.046 95.6058 121.046 95.0031V93.5457C121.046 92.9429 120.92 92.3762 120.669 91.8454C120.417 91.3056 119.881 91.0357 119.063 91.0357C118.307 91.0357 117.79 91.3101 117.511 91.8589C117.241 92.4076 117.106 92.9699 117.106 93.5457ZM114.798 116L133.798 88.3638H137.482L118.482 116H114.798Z" fill="white"/>
<path fill-rule="evenodd" clip-rule="evenodd" d="M181.765 37.6022C194.464 53.2008 202.22 72.1437 204.174 92.0157C204.715 97.512 200.187 102 194.664 102H193.664C188.141 102 183.728 97.5011 183.055 92.0195C178.137 51.9933 144.02 21.0002 102.664 21.0002C57.9287 21.0002 21.6637 57.2652 21.6637 102C21.6637 146.735 57.9287 183 102.664 183C120.522 183 137.03 177.221 150.421 167.431C154.88 164.171 161.178 164.311 164.959 168.338L165.642 169.065C169.423 173.091 169.251 179.464 164.874 182.833C149.05 195.012 129.932 202.325 109.868 203.746C86.4658 205.402 63.2079 198.942 44.0135 185.451C24.8191 171.961 10.8618 152.267 4.49361 129.687C-1.87458 107.107 -0.264304 83.0223 9.05307 61.4911C18.3705 39.9599 34.8253 22.2988 55.6447 11.4841C76.464 0.669259 100.375 -2.63804 123.348 2.1195C146.322 6.87704 166.953 19.4086 181.765 37.6022Z" fill="url(#paint0_linear_101_28)"/>
<defs>
<linearGradient id="paint0_linear_101_28" x1="0.663727" y1="106.054" x2="204.218" y2="106.054" gradientUnits="userSpaceOnUse">
<stop stop-color="#AA367C"/>
<stop offset="1" stop-color="#4A2FBD"/>
</linearGradient>
</defs>
</svg>
