<svg width="204" height="204" viewBox="0 0 204 204" fill="none" xmlns="http://www.w3.org/2000/svg">
<path d="M72.4421 87.986C73.9534 87.986 75.3973 88.2334 76.7738 88.7282C78.1502 89.214 79.3782 89.9922 80.4577 91.0627C81.5373 92.1243 82.3874 93.5232 83.0081 95.2594C83.6289 96.9957 83.9392 99.1143 83.9392 101.615C83.9482 103.918 83.6784 105.983 83.1296 107.809C82.5808 109.626 81.7936 111.174 80.7681 112.451C79.7515 113.729 78.528 114.705 77.0976 115.379C75.6672 116.045 74.0704 116.378 72.3071 116.378C70.364 116.378 68.6502 116.005 67.1658 115.258C65.6904 114.502 64.5074 113.486 63.6168 112.208C62.7352 110.931 62.2089 109.5 62.038 107.917H68.6097C68.8166 108.835 69.2529 109.527 69.9186 109.995C70.5844 110.454 71.3805 110.683 72.3071 110.683C73.9984 110.683 75.2624 109.95 76.099 108.484C76.9357 107.017 77.354 105.025 77.354 102.506H77.1921C76.8052 103.334 76.2565 104.044 75.5458 104.638C74.8441 105.232 74.0299 105.686 73.1033 106.001C72.1767 106.316 71.2006 106.473 70.175 106.473C68.5197 106.473 67.0578 106.095 65.7894 105.34C64.5299 104.584 63.5403 103.545 62.8206 102.223C62.1099 100.9 61.7501 99.3887 61.7411 97.6884C61.7321 95.7812 62.1774 94.0989 63.077 92.6415C63.9766 91.1752 65.2316 90.0326 66.8419 89.214C68.4523 88.3863 70.319 87.977 72.4421 87.986ZM72.4826 93.1138C71.6549 93.1138 70.9172 93.3073 70.2695 93.6941C69.6308 94.0809 69.127 94.6027 68.7581 95.2594C68.3893 95.9162 68.2094 96.6539 68.2184 97.4725C68.2274 98.2912 68.4118 99.0289 68.7716 99.6856C69.1405 100.342 69.6398 100.864 70.2695 101.251C70.9082 101.638 71.6369 101.831 72.4556 101.831C73.0673 101.831 73.6341 101.719 74.1559 101.494C74.6776 101.269 75.1319 100.959 75.5188 100.563C75.9056 100.158 76.207 99.6901 76.4229 99.1593C76.6478 98.6285 76.7558 98.0618 76.7468 97.459C76.7378 96.6584 76.5489 95.9297 76.18 95.2729C75.8112 94.6162 75.3029 94.0944 74.6551 93.7076C74.0164 93.3118 73.2922 93.1138 72.4826 93.1138ZM98.1859 116.378C96.1707 116.378 94.3805 116.014 92.8151 115.285C91.2498 114.556 90.0128 113.553 89.1042 112.276C88.2046 110.998 87.7368 109.532 87.7008 107.877H94.1781C94.232 108.893 94.6459 109.712 95.4195 110.333C96.1932 110.944 97.1153 111.25 98.1859 111.25C99.0225 111.25 99.7647 111.066 100.412 110.697C101.06 110.328 101.568 109.811 101.937 109.145C102.306 108.47 102.486 107.697 102.477 106.824C102.486 105.933 102.302 105.155 101.924 104.49C101.555 103.824 101.042 103.307 100.385 102.938C99.7377 102.56 98.991 102.371 98.1454 102.371C97.3447 102.362 96.5845 102.537 95.8648 102.897C95.1541 103.257 94.6144 103.747 94.2455 104.368L88.3485 103.262L89.5495 88.3638H107.281V93.7481H95.0417L94.4075 100.266H94.5694C95.0282 99.5012 95.7659 98.8714 96.7825 98.3766C97.808 97.8728 98.973 97.621 100.277 97.621C101.933 97.621 103.408 98.0078 104.704 98.7815C106.008 99.5461 107.034 100.608 107.78 101.966C108.536 103.325 108.914 104.881 108.914 106.635C108.914 108.533 108.464 110.216 107.564 111.682C106.674 113.148 105.423 114.3 103.813 115.137C102.212 115.964 100.336 116.378 98.1859 116.378ZM128.059 110.818V109.361C128.059 108.227 128.302 107.179 128.788 106.217C129.282 105.254 129.998 104.481 130.933 103.896C131.869 103.311 133.011 103.019 134.361 103.019C135.737 103.019 136.893 103.311 137.829 103.896C138.773 104.472 139.484 105.241 139.961 106.203C140.447 107.157 140.69 108.209 140.69 109.361V110.818C140.69 111.952 140.447 113 139.961 113.963C139.475 114.925 138.76 115.699 137.815 116.284C136.871 116.868 135.719 117.161 134.361 117.161C132.993 117.161 131.842 116.868 130.906 116.284C129.971 115.699 129.26 114.925 128.774 113.963C128.297 113 128.059 111.952 128.059 110.818ZM132.364 109.361V110.818C132.364 111.394 132.503 111.947 132.782 112.478C133.07 113.009 133.596 113.274 134.361 113.274C135.143 113.274 135.67 113.018 135.94 112.505C136.209 111.983 136.344 111.421 136.344 110.818V109.361C136.344 108.758 136.214 108.192 135.953 107.661C135.701 107.121 135.17 106.851 134.361 106.851C133.605 106.851 133.083 107.121 132.795 107.661C132.508 108.192 132.364 108.758 132.364 109.361ZM113.728 95.0031V93.5457C113.728 92.3942 113.975 91.3416 114.47 90.388C114.974 89.4254 115.694 88.6562 116.629 88.0805C117.565 87.4957 118.698 87.2033 120.03 87.2033C121.406 87.2033 122.562 87.4957 123.498 88.0805C124.442 88.6562 125.158 89.4254 125.643 90.388C126.129 91.3416 126.372 92.3942 126.372 93.5457V95.0031C126.372 96.1546 126.125 97.2071 125.63 98.1607C125.144 99.1143 124.429 99.8745 123.484 100.441C122.54 101.008 121.388 101.291 120.03 101.291C118.671 101.291 117.52 101.004 116.575 100.428C115.64 99.852 114.929 99.0873 114.443 98.1337C113.966 97.1801 113.728 96.1366 113.728 95.0031ZM118.073 93.5457V95.0031C118.073 95.6058 118.213 96.1681 118.491 96.6898C118.779 97.2026 119.292 97.459 120.03 97.459C120.821 97.459 121.348 97.2026 121.609 96.6898C121.879 96.1681 122.013 95.6058 122.013 95.0031V93.5457C122.013 92.9429 121.888 92.3762 121.636 91.8454C121.384 91.3056 120.848 91.0357 120.03 91.0357C119.274 91.0357 118.757 91.3101 118.478 91.8589C118.208 92.4076 118.073 92.9699 118.073 93.5457ZM115.766 116L134.766 88.3638H138.45L119.45 116H115.766Z" fill="white"/>
<path fill-rule="evenodd" clip-rule="evenodd" d="M176.901 32.7625C192.051 49.1518 201.344 69.9838 203.511 92.0157C204.051 97.5121 199.523 102 194 102H193C187.477 102 183.065 97.5011 182.392 92.0195C177.473 51.9933 143.356 21.0002 102 21.0002C57.2653 21.0002 21.0003 57.2652 21.0003 102C21.0003 146.735 57.2653 183 102 183C134.461 183 162.463 163.905 175.384 136.335C177.729 131.334 183.316 128.421 188.569 130.128L189.498 130.43C194.75 132.136 197.67 137.804 195.457 142.864C186.588 163.149 171.313 180.089 151.84 190.995C129.446 203.536 103.146 207.174 78.1889 201.182C53.2313 195.19 31.4501 180.009 17.1904 158.668C2.93074 137.327 -2.75905 111.395 1.25611 86.0439C5.27127 60.6932 18.6962 37.788 38.8527 21.8979C59.0093 6.00777 84.4155 -1.69914 110.003 0.314651C135.591 2.32844 159.479 13.9149 176.901 32.7625Z" fill="url(#paint0_linear_101_16)"/>
<defs>
<linearGradient id="paint0_linear_101_16" x1="0" y1="102" x2="203.555" y2="102" gradientUnits="userSpaceOnUse">
<stop stop-color="#AA367C"/>
<stop offset="1" stop-color="#4A2FBD"/>
</linearGradient>
</defs>
</svg>
